# Elvis_BrowsAnimGeo
# 81 vertices, 124 triangles
v 6.565393 181.334076 4.525299
v 4.460367 180.525970 5.402008
v 4.505716 177.713943 5.137522
v 6.212991 178.107330 4.704707
v 8.475657 181.458771 3.579252
v 7.899789 178.292480 4.278960
v 12.614862 176.445786 0.842196
v 12.091181 179.281952 1.223973
v 10.823984 177.657578 2.952580
v 11.137537 175.373093 2.949604
v 13.241571 170.663971 2.427603
v 12.550318 173.653351 1.389699
v 10.925776 173.098282 3.881624
v 11.569788 170.378052 5.170438
v 2.417276 178.994446 6.401642
v 1.617075 175.874191 7.801032
v 2.528665 175.091003 7.114275
v 3.123926 177.324463 5.710352
v -0.000021 179.003128 6.598300
v -0.000021 175.968048 8.154898
v 10.542383 180.911758 2.400347
v 9.451075 178.205093 3.711841
v 1.459055 174.781052 9.017642
v -0.000021 174.934372 9.336561
v -0.000021 173.939743 10.613660
v 1.368372 173.674545 10.357007
v 2.345178 173.818832 8.351553
v 2.435617 171.558426 10.127441
v 3.828790 172.993073 7.565536
v 3.605875 171.393768 9.401416
v 4.101892 174.845505 5.835946
v 6.010675 174.615356 4.883731
v 7.760690 174.928970 4.328234
v 9.373514 175.114395 3.852660
v 6.160669 172.429672 6.679217
v 5.975076 170.546310 8.774851
v 7.812845 170.024490 8.074915
v 7.944376 172.560959 5.874279
v 9.538462 172.699966 5.058803
v 9.852045 170.071854 6.933865
v 1.371942 173.399353 11.762946
v 1.861933 172.321854 11.353238
v -0.000021 173.720764 11.937698
v -6.565436 181.334076 4.525299
v -6.213034 178.107330 4.704707
v -4.505759 177.713943 5.137522
v -4.460410 180.525970 5.402008
v -8.475698 181.458771 3.579252
v -7.899832 178.292480 4.278960
v -12.614904 176.445786 0.842196
v -11.137579 175.373093 2.949604
v -10.824026 177.657578 2.952580
v -12.091223 179.281952 1.223973
v -13.241613 170.663971 2.427603
v -11.569830 170.378052 5.170438
v -10.925817 173.098282 3.881624
v -12.550360 173.653351 1.389699
v -2.417319 178.994446 6.401642
v -3.123968 177.324463 5.710352
v -2.528708 175.091003 7.114275
v -1.617117 175.874191 7.801032
v -9.451117 178.205093 3.711841
v -10.542425 180.911758 2.400347
v -1.459097 174.781052 9.017642
v -1.368414 173.674545 10.357007
v -2.345221 173.818832 8.351553
v -2.435660 171.558426 10.127441
v -3.828833 172.993073 7.565536
v -3.605917 171.393768 9.401416
v -4.101935 174.845505 5.835946
v -6.010718 174.615356 4.883731
v -7.760733 174.928970 4.328234
v -9.373556 175.114395 3.852660
v -6.160712 172.429672 6.679217
v -5.975119 170.546310 8.774851
v -7.944418 172.560959 5.874279
v -7.812888 170.024490 8.074915
v -9.852087 170.071854 6.933865
v -9.538504 172.699966 5.058803
v -1.861975 172.321854 11.353238
v -1.371985 173.399353 11.762946
vt 0.140979 0.989554
vt 0.128178 0.982612
vt 0.132550 0.965848
vt 0.142541 0.970095
vt 0.153046 0.992770
vt 0.152742 0.973065
vt 0.192229 0.972793
vt 0.181128 0.987866
vt 0.172914 0.973579
vt 0.179178 0.959424
vt 0.203666 0.930176
vt 0.197197 0.953336
vt 0.179630 0.941823
vt 0.183887 0.919746
vt 0.115644 0.970855
vt 0.111110 0.948164
vt 0.119932 0.945668
vt 0.124140 0.961856
vt 0.100050 0.970187
vt 0.099989 0.947566
vt 0.167044 0.993137
vt 0.162662 0.974519
vt 0.109293 0.937433
vt 0.099957 0.937213
vt 0.099925 0.927456
vt 0.108149 0.926867
vt 0.118249 0.934669
vt 0.119020 0.917134
vt 0.129529 0.932288
vt 0.126623 0.917596
vt 0.132378 0.947637
vt 0.145199 0.948507
vt 0.156153 0.951777
vt 0.166690 0.954559
vt 0.145085 0.930583
vt 0.141739 0.912936
vt 0.154361 0.910868
vt 0.157174 0.932961
vt 0.168604 0.935829
vt 0.168962 0.913270
vt 0.105816 0.919742
vt 0.111080 0.917089
vt 0.099903 0.920497
vt 0.059229 0.989644
vt 0.057591 0.970195
vt 0.067549 0.965924
vt 0.071991 0.982674
vt 0.047186 0.992889
vt 0.047416 0.973190
vt 0.007980 0.973038
vt 0.020959 0.959630
vt 0.027274 0.973760
vt 0.019126 0.988064
vt -0.003628 0.930470
vt 0.016091 0.919975
vt 0.020434 0.942036
vt 0.002936 0.953605
vt 0.084464 0.970890
vt 0.075931 0.961912
vt 0.080053 0.945716
vt 0.088877 0.948190
vt 0.037515 0.974670
vt 0.033209 0.993291
vt 0.090629 0.937456
vt 0.091706 0.926887
vt 0.081672 0.934714
vt 0.080813 0.917182
vt 0.070405 0.932361
vt 0.073236 0.917664
vt 0.067636 0.947716
vt 0.054842 0.948618
vt 0.043919 0.951916
vt 0.033410 0.954728
vt 0.054876 0.930698
vt 0.058141 0.913045
vt 0.042818 0.933108
vt 0.045537 0.911013
vt 0.030970 0.913457
vt 0.031419 0.936008
vt 0.088728 0.917117
vt 0.093993 0.919756
vn 0.343667 0.036192 0.938394
vn 0.374707 -0.054683 0.925529
vn 0.402367 0.034992 0.914809
vn 0.324227 0.032383 0.945425
vn 0.409472 0.131593 0.902782
vn 0.349078 0.072899 0.934254
vn 0.789497 0.098114 0.605862
vn 0.709829 0.134772 0.691360
vn 0.658354 0.107311 0.745020
vn 0.695334 0.138514 0.705213
vn 0.748426 0.392798 0.534386
vn 0.783144 0.257212 0.566152
vn 0.665821 0.373424 0.645939
vn 0.647072 0.450740 0.614924
vn 0.415730 0.175176 0.892458
vn 0.444749 0.401858 0.800443
vn 0.665886 0.332436 0.667894
vn 0.592638 0.101334 0.799069
vn -0.000000 0.418632 0.908156
vn -0.000000 0.518984 0.854784
vn 0.548366 0.178042 0.817065
vn 0.469012 0.116316 0.875499
vn 0.575395 0.585406 0.571158
vn -0.000000 0.759520 0.650484
vn 0.000000 0.902487 0.430718
vn 0.672204 0.618631 0.406740
vn 0.689561 0.474530 0.547109
vn 0.716374 0.498429 0.488238
vn 0.474643 0.597655 0.646159
vn 0.474336 0.618682 0.626288
vn 0.458430 0.376026 0.805262
vn 0.329586 0.346797 0.878126
vn 0.284646 0.261862 0.922174
vn 0.389739 0.224941 0.893031
vn 0.358660 0.626245 0.692229
vn 0.380747 0.653601 0.654094
vn 0.356648 0.615638 0.702704
vn 0.310776 0.582987 0.750696
vn 0.423892 0.504206 0.752391
vn 0.427999 0.555549 0.712869
vn 0.625991 0.762919 0.161524
vn 0.901655 0.416004 0.118146
vn 0.000000 0.984063 0.177820
vn -0.343667 0.036193 0.938394
vn -0.324227 0.032383 0.945425
vn -0.402367 0.034992 0.914810
vn -0.374707 -0.054683 0.925530
vn -0.409472 0.131593 0.902782
vn -0.349078 0.072899 0.934254
vn -0.789496 0.098114 0.605863
vn -0.695333 0.138514 0.705213
vn -0.658353 0.107311 0.745020
vn -0.709829 0.134772 0.691360
vn -0.748426 0.392798 0.534385
vn -0.647073 0.450740 0.614923
vn -0.665821 0.373425 0.645938
vn -0.783144 0.257212 0.566152
vn -0.415730 0.175176 0.892458
vn -0.592637 0.101334 0.799070
vn -0.665886 0.332436 0.667894
vn -0.444749 0.401858 0.800442
vn -0.469013 0.116316 0.875498
vn -0.548367 0.178043 0.817065
vn -0.575395 0.585406 0.571157
vn -0.672204 0.618631 0.406741
vn -0.689560 0.474530 0.547109
vn -0.716373 0.498429 0.488239
vn -0.474643 0.597656 0.646159
vn -0.474336 0.618682 0.626289
vn -0.458430 0.376027 0.805261
vn -0.329587 0.346798 0.878125
vn -0.284647 0.261862 0.922174
vn -0.389740 0.224942 0.893031
vn -0.358660 0.626245 0.692229
vn -0.380746 0.653600 0.654095
vn -0.310776 0.582986 0.750697
vn -0.356647 0.615636 0.702706
vn -0.427999 0.555548 0.712870
vn -0.423892 0.504206 0.752391
vn -0.901655 0.416004 0.118149
vn -0.625991 0.762919 0.161526
f 1/1/1 2/2/2 3/3/3
f 1/1/1 3/3/3 4/4/4
f 5/5/5 1/1/1 4/4/4
f 5/5/5 4/4/4 6/6/6
f 7/7/7 8/8/8 9/9/9
f 7/7/7 9/9/9 10/10/10
f 11/11/11 12/12/12 13/13/13
f 11/11/11 13/13/13 14/14/14
f 15/15/15 16/16/16 17/17/17
f 15/15/15 17/17/17 18/18/18
f 16/16/16 15/15/15 19/19/19
f 16/16/16 19/19/19 20/20/20
f 2/2/2 15/15/15 18/18/18
f 2/2/2 18/18/18 3/3/3
f 8/8/8 21/21/21 22/22/22
f 8/8/8 22/22/22 9/9/9
f 23/23/23 24/24/24 25/25/25
f 23/23/23 25/25/25 26/26/26
f 27/27/27 23/23/23 26/26/26
f 27/27/27 26/26/26 28/28/28
f 29/29/29 27/27/27 28/28/28
f 29/29/29 28/28/28 30/30/30
f 3/3/3 18/18/18 17/17/17
f 3/3/3 17/17/17 31/31/31
f 31/31/31 32/32/32 4/4/4
f 31/31/31 4/4/4 3/3/3
f 33/33/33 6/6/6 4/4/4
f 33/33/33 4/4/4 32/32/32
f 10/10/10 9/9/9 22/22/22
f 10/10/10 22/22/22 34/34/34
f 35/35/35 29/29/29 30/30/30
f 35/35/35 30/30/30 36/36/36
f 36/36/36 37/37/37 38/38/38
f 36/36/36 38/38/38 35/35/35
f 14/14/14 13/13/13 39/39/39
f 14/14/14 39/39/39 40/40/40
f 13/13/13 12/12/12 7/7/7
f 13/13/13 7/7/7 10/10/10
f 39/39/39 13/13/13 10/10/10
f 39/39/39 10/10/10 34/34/34
f 35/35/35 38/38/38 33/33/33
f 35/35/35 33/33/33 32/32/32
f 32/32/32 31/31/31 29/29/29
f 32/32/32 29/29/29 35/35/35
f 31/31/31 17/17/17 27/27/27
f 31/31/31 27/27/27 29/29/29
f 17/17/17 16/16/16 23/23/23
f 17/17/17 23/23/23 27/27/27
f 16/16/16 20/20/20 24/24/24
f 16/16/16 24/24/24 23/23/23
f 28/28/28 26/26/26 41/41/41
f 28/28/28 41/41/41 42/42/42
f 43/43/43 41/41/41 26/26/26
f 43/43/43 26/26/26 25/25/25
f 38/38/38 37/37/37 40/40/40
f 38/38/38 40/40/40 39/39/39
f 33/33/33 38/38/38 39/39/39
f 33/33/33 39/39/39 34/34/34
f 34/34/34 22/22/22 6/6/6
f 34/34/34 6/6/6 33/33/33
f 21/21/21 5/5/5 6/6/6
f 21/21/21 6/6/6 22/22/22
f 44/44/44 45/45/45 46/46/46
f 44/44/44 46/46/46 47/47/47
f 48/48/48 49/49/49 45/45/45
f 48/48/48 45/45/45 44/44/44
f 50/50/50 51/51/51 52/52/52
f 50/50/50 52/52/52 53/53/53
f 54/54/54 55/55/55 56/56/56
f 54/54/54 56/56/56 57/57/57
f 58/58/58 59/59/59 60/60/60
f 58/58/58 60/60/60 61/61/61
f 61/61/61 20/20/20 19/19/19
f 61/61/61 19/19/19 58/58/58
f 47/47/47 46/46/46 59/59/59
f 47/47/47 59/59/59 58/58/58
f 53/53/53 52/52/52 62/62/62
f 53/53/53 62/62/62 63/63/63
f 64/64/64 65/65/65 25/25/25
f 64/64/64 25/25/25 24/24/24
f 66/66/66 67/67/67 65/65/65
f 66/66/66 65/65/65 64/64/64
f 68/68/68 69/69/69 67/67/67
f 68/68/68 67/67/67 66/66/66
f 46/46/46 70/70/70 60/60/60
f 46/46/46 60/60/60 59/59/59
f 70/70/70 46/46/46 45/45/45
f 70/70/70 45/45/45 71/71/71
f 72/72/72 71/71/71 45/45/45
f 72/72/72 45/45/45 49/49/49
f 51/51/51 73/73/73 62/62/62
f 51/51/51 62/62/62 52/52/52
f 74/74/74 75/75/75 69/69/69
f 74/74/74 69/69/69 68/68/68
f 75/75/75 74/74/74 76/76/76
f 75/75/75 76/76/76 77/77/77
f 55/55/55 78/78/78 79/79/79
f 55/55/55 79/79/79 56/56/56
f 56/56/56 51/51/51 50/50/50
f 56/56/56 50/50/50 57/57/57
f 79/79/79 73/73/73 51/51/51
f 79/79/79 51/51/51 56/56/56
f 74/74/74 71/71/71 72/72/72
f 74/74/74 72/72/72 76/76/76
f 71/71/71 74/74/74 68/68/68
f 71/71/71 68/68/68 70/70/70
f 70/70/70 68/68/68 66/66/66
f 70/70/70 66/66/66 60/60/60
f 60/60/60 66/66/66 64/64/64
f 60/60/60 64/64/64 61/61/61
f 61/61/61 64/64/64 24/24/24
f 61/61/61 24/24/24 20/20/20
f 67/67/67 80/80/80 81/81/81
f 67/67/67 81/81/81 65/65/65
f 43/43/43 25/25/25 65/65/65
f 43/43/43 65/65/65 81/81/81
f 76/76/76 79/79/79 78/78/78
f 76/76/76 78/78/78 77/77/77
f 72/72/72 73/73/73 79/79/79
f 72/72/72 79/79/79 76/76/76
f 73/73/73 72/72/72 49/49/49
f 73/73/73 49/49/49 62/62/62
f 63/63/63 62/62/62 49/49/49
f 63/63/63 49/49/49 48/48/48
